<svg xmlns="http://www.w3.org/2000/svg" width="6080" height="1080" viewBox="0 0 6080 1080">
  <defs>
    <filter id="shadow"><feDropShadow dx="0" dy="10" stdDeviation="16" flood-opacity=".3"/></filter>
    <pattern id="grid" width="24" height="24" patternUnits="userSpaceOnUse"><circle cx="1" cy="1" r="1" fill="#50545E" opacity=".35"/></pattern>
    <style>text{font-family:'Noto Sans SC','Microsoft YaHei',sans-serif}.h1{font-size:34px;font-weight:700;fill:#fff}.h2{font-size:20px;font-weight:600;fill:#fff}.body{font-size:14px;fill:#CED2DA}.muted{font-size:12px;fill:#969BA5}.label{font-size:11px;font-weight:600;fill:#969BA5}.good{fill:#5CC88A}.warn{fill:#EACB64}.danger{fill:#FF9B9B}</style>
  </defs>
  <rect width="6080" height="1080" fill="#111318"/>

  <g transform="translate(40 60)">
    <rect width="1440" height="960" rx="20" fill="#1C1E24" stroke="#50545E"/>
    <text class="h1" x="72" y="86">waver · 项目状态</text>
    <text class="body" x="72" y="120">Rust 桌面模块化合成器 · 与当前代码仓库同步</text>
    <rect x="1120" y="60" width="248" height="48" rx="24" fill="#18372A" stroke="#5CC88A"/><circle cx="1148" cy="84" r="6" fill="#5CC88A"/><text class="body" x="1164" y="90">核心音频原型可运行</text>
    <g transform="translate(72 166)"><rect width="300" height="112" rx="14" fill="#262830"/><text class="label" x="24" y="34">测试</text><text class="h1" x="24" y="80">23 / 23</text><text class="good" x="182" y="78" font-size="13">全部通过</text></g>
    <g transform="translate(394 166)"><rect width="300" height="112" rx="14" fill="#262830"/><text class="label" x="24" y="34">已实现节点</text><text class="h1" x="24" y="80">4 / 9</text><text class="warn" x="150" y="78" font-size="13">基础完成</text></g>
    <g transform="translate(716 166)"><rect width="300" height="112" rx="14" fill="#262830"/><text class="label" x="24" y="34">编辑器基础</text><text class="h1" x="24" y="80">已具备</text><text class="good" x="160" y="78" font-size="13">连线与旋钮</text></g>
    <g transform="translate(1038 166)"><rect width="330" height="112" rx="14" fill="#262830" stroke="#DC5050"/><text class="label" x="24" y="34">发布准备度</text><text class="h1" x="24" y="80">尚未就绪</text><text class="danger" x="192" y="78" font-size="13">存在 P0 缺口</text></g>
    <text class="h2" x="72" y="340">已完成</text><rect x="72" y="366" width="624" height="452" rx="14" fill="#262830"/>
    <g transform="translate(102 410)"><g fill="#5CC88A"><circle r="8"/><circle cy="64" r="8"/><circle cy="128" r="8"/><circle cy="192" r="8"/><circle cy="256" r="8"/><circle cy="320" r="8"/></g><g class="body"><text x="24" y="5">工作区拆分为 Core、DSP、Engine 与 UI 模块</text><text x="24" y="69">默认 VCO → Output 连线可正常发声</text><text x="24" y="133">支持添加、拖动、连接与删除节点</text><text x="24" y="197">支持频率、振幅和波形控制</text><text x="24" y="261">已实现 VCO、Output、Delay 与 Silence</text><text x="24" y="325">Clippy 无警告，23 项测试全部通过</text></g></g>
    <text class="h2" x="720" y="340">仍需完成</text><rect x="720" y="366" width="648" height="452" rx="14" fill="#262830"/>
    <g transform="translate(750 410)"><g><circle r="8" fill="#DC5050"/><circle cy="64" r="8" fill="#DC5050"/><circle cy="128" r="8" fill="#C8A028"/><circle cy="192" r="8" fill="#C8A028"/><circle cy="256" r="8" fill="#C8A028"/><circle cy="320" r="8" fill="#C8A028"/></g><g class="body"><text x="24" y="5">安全启动：默认静音、主静音与明确播放</text><text x="24" y="69">紧急静音、全部停止、限幅与电平表</text><text x="24" y="133">实现 VCF、VCA、ADSR、LFO 与 Mixer</text><text x="24" y="197">MIDI / Gate 输入和键盘演奏流程</text><text x="24" y="261">保存、载入、撤销/重做、缩放与平移</text><text x="24" y="325">实时回调优化与设备兼容测试</text></g></g>
    <rect x="72" y="850" width="1296" height="54" rx="12" fill="#20222A"/><text class="warn" x="96" y="883" font-size="14" font-weight="600">建议下一里程碑</text><text class="body" x="246" y="883">打造默认静音的安全编辑器，补齐播放控制、电平表与完整 VCO → VCF → VCA → Output 链路。</text>
  </g>

  <g transform="translate(1520 60)">
    <rect width="1440" height="960" rx="20" fill="#111318" stroke="#50545E"/><rect width="1440" height="64" rx="20" fill="#20222A"/><rect y="44" width="1440" height="20" fill="#20222A"/>
    <text x="24" y="41" fill="#64B4FF" font-size="22" font-weight="700">waver</text><text class="body" x="118" y="40" font-weight="600">未命名 Patch</text><rect x="284" y="18" width="98" height="28" rx="14" fill="#18372A"/><circle cx="302" cy="32" r="5" fill="#5CC88A"/><text x="314" y="37" fill="#9BE5BA" font-size="11">音频就绪</text>
    <g transform="translate(940 12)"><rect width="88" height="40" rx="8" fill="#64B4FF"/><text x="29" y="26" fill="#111318" font-size="13" font-weight="700">播放</text><rect x="100" width="80" height="40" rx="8" fill="#262830" stroke="#50545E"/><text class="body" x="125" y="26">静音</text><rect x="192" width="104" height="40" rx="8" fill="#3A2023" stroke="#DC5050"/><text class="danger" x="214" y="26" font-size="13">紧急静音</text><text class="muted" x="316" y="18">48 kHz · 64</text><text class="good" x="316" y="35" font-size="10">CPU 2.1% · 0 次中断</text></g>
    <rect y="64" width="224" height="856" fill="#20222A"/><text class="h2" x="20" y="104">模块</text><rect x="16" y="120" width="192" height="36" rx="8" fill="#262830" stroke="#50545E"/><text class="muted" x="34" y="143">搜索模块</text><text class="label" x="20" y="192">核心</text>
    <rect x="16" y="206" width="192" height="46" rx="8" fill="#262830"/><circle cx="36" cy="229" r="6" fill="#DCA03C"/><text class="body" x="52" y="234">振荡器</text><text class="good" x="170" y="234" font-size="10">完成</text><rect x="16" y="260" width="192" height="46" rx="8" fill="#262830"/><circle cx="36" cy="283" r="6" fill="#DCA03C"/><text class="body" x="52" y="288">输出</text><text class="good" x="170" y="288" font-size="10">完成</text>
    <text class="label" x="20" y="342">计划中</text><g class="body" fill="#969BA5"><text x="28" y="382">滤波器</text><text x="28" y="430">放大器</text><text x="28" y="478">包络</text><text x="28" y="526">LFO</text><text x="28" y="574">混音器</text></g>
    <rect x="224" y="64" width="936" height="856" fill="#1C1E24"/><rect x="224" y="64" width="936" height="856" fill="url(#grid)"/><text class="muted" x="252" y="104">PATCH 画布 · 拖动模块 · 连接端口 · 滚轮缩放</text>
    <g transform="translate(300 252)" filter="url(#shadow)"><rect width="208" height="244" rx="12" fill="#262830" stroke="#64B4FF" stroke-width="2"/><rect width="208" height="46" rx="12" fill="#20222A"/><text class="body" x="16" y="30" font-weight="600">振荡器 · VCO</text><text class="label" x="16" y="82">频率</text><circle cx="62" cy="128" r="34" fill="#1C1E24" stroke="#50545E"/><path d="M62 128L83 106" stroke="#64B4FF" stroke-width="4"/><text x="116" y="126" fill="#fff" font-size="20">440</text><text class="muted" x="116" y="146">Hz</text><text class="label" x="16" y="190">波形</text><rect x="16" y="202" width="106" height="28" rx="6" fill="#20222A"/><text class="muted" x="30" y="221">正弦波</text><circle cx="200" cy="160" r="8" fill="#DCA03C"/></g>
    <g transform="translate(584 292)" opacity=".8"><rect width="190" height="188" rx="12" fill="#262830" stroke="#C8A028" stroke-dasharray="6 6"/><text class="body" x="16" y="30" font-weight="600">滤波器 · VCF</text><text class="warn" x="132" y="30" font-size="10">下一步</text><circle cx="8" cy="94" r="8" fill="#50A0DC"/><circle cx="182" cy="94" r="8" fill="#DCA03C"/><text class="label" x="28" y="84">截止频率</text><text x="28" y="114" fill="#fff" font-size="22">1.2 kHz</text><text class="muted" x="16" y="162">计划中的引擎节点</text></g>
    <g transform="translate(846 316)" opacity=".8"><rect width="180" height="164" rx="12" fill="#262830" stroke="#C8A028" stroke-dasharray="6 6"/><text class="body" x="16" y="30" font-weight="600">放大器 · VCA</text><text class="warn" x="122" y="30" font-size="10">下一步</text><circle cx="8" cy="82" r="8" fill="#50A0DC"/><circle cx="172" cy="82" r="8" fill="#DCA03C"/><text class="label" x="28" y="78">增益</text><text x="28" y="108" fill="#fff" font-size="22">0%</text><text class="good" x="16" y="142" font-size="10">安全默认值</text></g>
    <g transform="translate(1048 328)"><rect width="92" height="140" rx="12" fill="#262830" stroke="#50545E"/><text class="body" x="16" y="30">输出</text><circle cx="8" cy="72" r="8" fill="#50A0DC"/><rect x="24" y="58" width="8" height="56" rx="4" fill="#20222A"/><rect x="24" y="92" width="8" height="22" rx="4" fill="#5CC88A"/><rect x="42" y="58" width="8" height="56" rx="4" fill="#20222A"/><rect x="42" y="98" width="8" height="16" rx="4" fill="#5CC88A"/></g>
    <path d="M500 412C548 412 544 386 592 386M766 386C814 386 806 398 854 398M1018 398C1040 398 1032 400 1056 400" fill="none" stroke="#C8C850" stroke-width="3"/>
    <rect x="1160" y="64" width="280" height="856" fill="#20222A"/><text class="h2" x="1184" y="104">属性检查器</text><text x="1184" y="134" fill="#64B4FF" font-size="12">振荡器 · VCO</text><text class="label" x="1184" y="184">频率</text><text x="1184" y="216" fill="#fff" font-size="24">440 Hz</text><rect x="1184" y="232" width="232" height="4" rx="2" fill="#50545E"/><rect x="1184" y="232" width="84" height="4" rx="2" fill="#64B4FF"/><text class="label" x="1184" y="290">振幅</text><text x="1184" y="322" fill="#fff" font-size="24">0%</text><text class="good" x="1184" y="348" font-size="11">默认静音</text><text class="label" x="1184" y="410">波形</text><rect x="1184" y="426" width="232" height="40" rx="8" fill="#262830" stroke="#50545E"/><text class="body" x="1200" y="451">正弦波</text><text class="label" x="1184" y="544">无障碍</text><text class="muted" x="1184" y="574">最小点击区域 32 px</text><text class="muted" x="1184" y="598">端口同时使用颜色与文字</text><rect y="920" width="1440" height="40" fill="#20222A"/><text class="good" x="24" y="945" font-size="11">● 引擎运行中</text><text class="muted" x="600" y="945">1 个 Patch · 4 个节点 · 自动保存关闭</text>
  </g>

  <g transform="translate(3000 60)"><rect width="1440" height="960" rx="20" fill="#1C1E24" stroke="#50545E"/><text class="h1" x="72" y="86">迈向可用 MVP 的路线图</text><text class="body" x="72" y="120">按安全性、音乐可用性与工程风险排序。</text>
    <g transform="translate(72 166)"><rect width="408" height="690" rx="16" fill="#262830" stroke="#DC5050"/><rect width="408" height="92" rx="16" fill="#3A2023"/><text class="danger" x="24" y="37" font-size="12" font-weight="700">P0 · 发布前必须完成</text><text class="h2" x="24" y="70" font-size="24">安全与音频完整性</text><g class="body"><text x="24" y="144">静音启动并明确点击播放</text><text x="24" y="218">主增益、静音、限幅与电平表</text><text x="24" y="292">真正可用的紧急静音 / 全部停止</text><text x="24" y="366">移除实时回调中的内存分配</text><text x="24" y="440">设备选择与错误状态</text></g><rect x="24" y="608" width="360" height="48" rx="10" fill="#20222A"/><text class="danger" x="42" y="638" font-size="12">验收：安全连续播放 30 分钟</text></g>
    <g transform="translate(516 166)"><rect width="408" height="690" rx="16" fill="#262830" stroke="#C8A028"/><rect width="408" height="92" rx="16" fill="#3A321B"/><text class="warn" x="24" y="37" font-size="12" font-weight="700">P1 · 核心 MVP</text><text class="h2" x="24" y="70" font-size="24">可演奏的 Patch 编辑器</text><g class="body"><text x="24" y="144">实现 VCF、VCA、ADSR</text><text x="24" y="218">加入 LFO 与 Mixer</text><text x="24" y="292">MIDI / Gate 输入与键盘</text><text x="24" y="366">保存、载入、撤销与重做</text><text x="24" y="440">缩放、平移、吸附与选择</text></g><rect x="24" y="608" width="360" height="48" rx="10" fill="#20222A"/><text class="warn" x="42" y="638" font-size="12">验收：创建、演奏、保存并重新打开 Patch</text></g>
    <g transform="translate(960 166)"><rect width="408" height="690" rx="16" fill="#262830" stroke="#64B4FF"/><rect width="408" height="92" rx="16" fill="#1E3348"/><text x="24" y="37" fill="#8FCBFF" font-size="12" font-weight="700">P2 · 体验完善</text><text class="h2" x="24" y="70" font-size="24">可靠性与扩展能力</text><g class="body"><text x="24" y="144">Patch 模板与新手引导</text><text x="24" y="218">性能分析浮层</text><text x="24" y="292">连线管理与小地图</text><text x="24" y="366">自动化与参数搜索</text><text x="24" y="440">跨平台兼容性测试</text></g><rect x="24" y="608" width="360" height="48" rx="10" fill="#20222A"/><text x="42" y="638" fill="#8FCBFF" font-size="12">验收：通过新用户可用性基准</text></g>
    <text class="muted" x="72" y="910">推进原则：安全优先 → 完成音乐闭环 → 提升效率与规模。</text>
  </g>

  <g transform="translate(4480 60)"><rect width="1560" height="960" rx="20" fill="#1C1E24" stroke="#50545E"/><text class="h1" x="72" y="86">设计基础与组件</text><text class="body" x="72" y="120">深色、专业、克制。信号颜色传递含义，同时始终提供文字标签。</text><text class="h2" x="72" y="184">颜色角色</text>
    <g transform="translate(72 208)"><rect width="136" height="96" rx="10" fill="#111318" stroke="#50545E"/><rect x="156" width="136" height="96" rx="10" fill="#1C1E24" stroke="#50545E"/><rect x="312" width="136" height="96" rx="10" fill="#262830" stroke="#50545E"/><rect x="468" width="136" height="96" rx="10" fill="#64B4FF"/><rect x="624" width="136" height="96" rx="10" fill="#50A0DC"/><rect x="780" width="136" height="96" rx="10" fill="#DCA03C"/><rect x="936" width="136" height="96" rx="10" fill="#C8C850"/><rect x="1092" width="136" height="96" rx="10" fill="#DC5050"/><g class="muted"><text x="10" y="122">应用背景</text><text x="166" y="122">画布</text><text x="322" y="122">表面</text><text x="478" y="122">强调色</text><text x="634" y="122">输入</text><text x="790" y="122">输出</text><text x="946" y="122">连线</text><text x="1102" y="122">危险</text></g></g>
    <text class="h2" x="72" y="390">字体规范</text><text x="72" y="442" fill="#fff" font-size="32" font-weight="700">展示标题 · 32 / 40 · 粗体</text><text x="72" y="486" fill="#fff" font-size="20" font-weight="500">标题 · 20 / 28 · 中黑</text><text class="body" x="72" y="524">正文 · 14 / 22 · 常规——适合精确控制，也适合引导说明。</text><text class="muted" x="72" y="556">说明文字 · 11 / 16 · 常规</text>
    <text class="h2" x="72" y="626">核心组件</text><g transform="translate(72 658)"><rect width="128" height="44" rx="8" fill="#64B4FF"/><text x="48" y="28" fill="#111318" font-size="13" font-weight="700">播放</text><rect x="148" width="128" height="44" rx="8" fill="#262830" stroke="#50545E"/><text class="body" x="196" y="28">静音</text><rect x="296" width="140" height="44" rx="8" fill="#3A2023" stroke="#DC5050"/><text class="danger" x="340" y="28" font-size="13">紧急静音</text><rect x="472" y="8" width="86" height="28" rx="14" fill="#18372A"/><text class="good" x="496" y="27" font-size="10">完成</text><rect x="578" y="8" width="86" height="28" rx="14" fill="#3A321B"/><text class="warn" x="598" y="27" font-size="10">下一步</text><circle cx="712" cy="22" r="8" fill="#50A0DC"/><text class="muted" x="728" y="27">输入</text><circle cx="804" cy="22" r="8" fill="#DCA03C"/><text class="muted" x="820" y="27">输出</text><circle cx="930" cy="22" r="22" fill="#20222A" stroke="#50545E"/><path d="M930 22L943 9" stroke="#64B4FF" stroke-width="3"/><text class="muted" x="966" y="27">旋钮</text></g>
    <rect x="72" y="748" width="1416" height="130" rx="14" fill="#262830"/><text class="h2" x="96" y="782" font-size="15">交互规则</text><text class="body" x="96" y="812">• 最小点击区域 32 px　• 安全默认值清晰可见　• 计划中控件明显禁用</text><text class="body" x="96" y="840">• 输入与输出同时使用颜色和文字　• 危险操作使用红色并保持隔离</text><text class="muted" x="96" y="866">Figma 已创建：15 个基础色变量 · 16 个语义别名 · 14 个尺寸变量 · 6 个文字样式</text>
  </g>
</svg>
